<?xml version="1.0" encoding="utf-8"?>
<!-- Generator: Adobe Illustrator 25.2.0, SVG Export Plug-In . SVG Version: 6.00 Build 0)  -->
<svg version="1.1" id="a97b75e6-1429-4e16-873c-5658d47e4ef0"
	 xmlns="http://www.w3.org/2000/svg" xmlns:xlink="http://www.w3.org/1999/xlink" x="0px" y="0px" viewBox="0 0 936.3 604"
	 style="enable-background:new 0 0 936.3 604;" xml:space="preserve">
<style type="text/css">
	.st0{fill:#E6E6E6;}
	.st1{fill:#4D003E;}
	.st2{fill:#E9DFE7;}
	.st3{fill:#FFB8B8;}
	.st4{fill:#2F2E41;}
	.st5{fill:#CCCCCC;}
	.st6{fill:#FFFFFF;}
</style>
<g>
	<path id="b4c13b4e-8ef9-4732-a242-1b77a57c7078" class="st0" d="M875.2,520H415.9c-2.9,0-5.3-2.4-5.3-5.3V88.2
		c0-2.9,2.4-5.3,5.3-5.3h459.3c2.9,0,5.3,2.4,5.3,5.3v426.5C880.5,517.6,878.1,520,875.2,520L875.2,520z M415.9,85
		c-1.8,0-3.2,1.4-3.2,3.2v426.5c0,1.8,1.4,3.2,3.2,3.2h459.3c1.8,0,3.2-1.4,3.2-3.2V88.2c0-1.8-1.4-3.2-3.2-3.2H415.9z"/>
	<path id="b86923e0-dd17-408d-8c65-7675907766e6" class="st0" d="M632.9,193.7c-2,0-3.6,1.6-3.6,3.6s1.6,3.6,3.6,3.6h198.9
		c2,0,3.6-1.6,3.6-3.6s-1.6-3.6-3.6-3.6H632.9z"/>
	<path id="b7c93af7-a9b3-4ec5-8b9c-228075bea008" class="st0" d="M632.9,215.4c-2,0-3.6,1.6-3.6,3.6s1.6,3.6,3.6,3.6h101.5
		c2,0,3.6-1.6,3.6-3.6s-1.6-3.6-3.6-3.6H632.9z"/>
	<path id="bf6f3c94-5d99-4a3b-bad8-b2235a5a7f19" class="st0" d="M459.1,320.7c-2,0-3.6,1.6-3.6,3.6s1.6,3.6,3.6,3.6H832
		c2,0,3.6-1.6,3.6-3.6s-1.6-3.6-3.6-3.6H459.1z"/>
	<path id="b0a6cee6-456b-42c7-b828-32d4ce813421" class="st0" d="M459.1,342.4c-2,0-3.6,1.6-3.6,3.6s1.6,3.6,3.6,3.6h275.5
		c2,0,3.6-1.6,3.6-3.6s-1.6-3.6-3.6-3.6H459.1z"/>
	<path id="b1178f6f-c479-4db7-b1bf-97b40cae8cd0" class="st0" d="M459.1,363.7c-2,0-3.6,1.6-3.6,3.6s1.6,3.6,3.6,3.6H832
		c2,0,3.6-1.6,3.6-3.6s-1.6-3.6-3.6-3.6H459.1z"/>
	<path id="ad9199b6-e18d-416a-bbd3-7817c0554bff" class="st0" d="M459.1,385.4c-2,0-3.6,1.6-3.6,3.6s1.6,3.6,3.6,3.6h275.5
		c2,0,3.6-1.6,3.6-3.6s-1.6-3.6-3.6-3.6H459.1z"/>
	<path id="f7d611df-d029-4cc6-9561-be5a6829cf65" class="st1" d="M582.7,270H294.4c-2.9,0-5.3-2.4-5.3-5.3V138.2
		c0-2.9,2.4-5.3,5.3-5.3h288.3c2.9,0,5.3,2.4,5.3,5.3v126.5C588,267.6,585.6,270,582.7,270z"/>
	<path id="b2be1aaf-9241-4aa1-a473-dbb8e8dcff3c" class="st2" d="M829.7,470H720.4c-2.9,0-5.3-2.4-5.3-5.3v-17.5
		c0-2.9,2.4-5.3,5.3-5.3h109.3c2.9,0,5.3,2.4,5.3,5.3v17.5C835,467.6,832.6,470,829.7,470z"/>
	<path class="st3" d="M182.2,297c-4.7-3.5-6.1-10.1-3.1-14.7c0.3-0.4,0.6-0.9,1-1.3l0.3-93.5l13.9,2.6l0.6,91.9
		c3.2,3.7,3.8,9,1.2,12.9C193.1,299.6,186.9,300.5,182.2,297z"/>
	<polygon class="st3" points="254.4,506.1 268.7,506.1 275.6,450.9 254.4,450.9 	"/>
	<path class="st4" d="M250.8,501.5H279l0,0c9.9,0,18,8,18,18v0.6h-46.2V501.5z"/>
	<polygon class="st3" points="121.2,506.1 135.6,506.1 142.4,450.9 121.2,450.9 	"/>
	<path class="st4" d="M117.6,501.5h28.2l0,0c9.9,0,18,8,18,18v0.6h-46.2L117.6,501.5z"/>
	<path class="st4" d="M253.6,490.7l-1.2-7.2c-1.2-0.4-2.3-1.3-3-2.4c-1.3-2-1.5-4.9-0.6-8.5l-9.7-81.6l-50.5-52.3l-32.4,78.1
		l-12.8,61.8v8.9l-25.6,3.3l1.2-8.4c-1-0.4-1.8-1.1-2.3-2.1c-1.5-2.4-1.4-6.2,0.1-11.3l0.1-0.2l-0.1-0.8c-0.1-0.5,0.3-51,15.3-76
		l15-75.9c-0.4-1.1-2.3-7.3,1.2-17.8c3.5-10.4,13.2-27.1,39.9-47.8l0.1-0.1h0.1c0.3-0.1,29.7-5.9,44.9,14l0.1,0.1v0.2
		c0,1.2,0,29.8-2.3,36.2l36.1,66.3c0.7,0.7,7,8,4.8,27.2l5.8,65.3c0.7,1.3,6.7,13.3,0.1,18l1.2,8.2L253.6,490.7z"/>
	<path class="st2" d="M193.2,216.4c-6.8,0-15.8-2.4-21.3-13.4l-0.1-0.2l13.6-28.8c3.7-7.9,13.1-11.3,21-7.5
		c7.6,3.6,11.1,12.6,7.8,20.3L202.5,215l-0.2,0.1C199.4,216,196.3,216.5,193.2,216.4z"/>
	<path class="st2" d="M230.8,273.5L188,253.3l5.9-71.8l10.7-13.1l2.1-0.4c9.5-2,19.5-1.5,28.7,1.6l0.2,0.1l17.6,37.6
		c0.1,0.2,12.8,22.6-4.7,34.4L230.8,273.5z"/>
	<path class="st3" d="M289.7,250.6c-0.5,0.2-1,0.5-1.5,0.8l-45.1-20.6l-1.2-12l-18.3-0.6v21.4c0,3.6,2.3,6.7,5.8,7.7l54.1,15.8
		c1.5,5.6,7.3,8.9,12.9,7.4s8.9-7.3,7.4-12.9s-7.3-8.9-12.9-7.4C290.5,250.3,290.1,250.5,289.7,250.6L289.7,250.6z"/>
	<path class="st2" d="M234.5,223.9c-5.1,0-10.9-1.8-16.5-7.3l-0.2-0.2l3.8-31.6c1-8.7,8.9-14.8,17.5-13.8c8.4,1,14.5,8.4,13.9,16.8
		l-2.2,30.4l-0.2,0.1C250.5,218.4,243.5,223.9,234.5,223.9z"/>
	<circle class="st3" cx="223.1" cy="129.7" r="28.7"/>
	<path class="st4" d="M252.3,114.5c-1.4-8.3-8.1-15.1-16-18c-7.9-2.8-16.8-1.9-24.6,1.3c-1.3,0.5-2.6,1.1-3.8,1.8
		c-2.8-5.4-9.8-8.5-16.1-8.2c-7.7,0.4-14.6,4.5-21.3,8.3s-13.8,7.6-21.5,7.5c-13.9-0.3-24.2-13.2-37.6-17
		c-16-4.6-32.6,4.7-37.2,20.6c-2.5,8.6-1,17.9,4.1,25.3c5.7-10.2,19.1-13.7,30.7-12.3c11.6,1.4,22.4,6.5,33.8,9.2
		c11.4,2.7,24.6,2.6,33.4-5.1c5-4.4,7.9-10.6,12.3-15.6c2.9-3.4,7.1-6.2,11.4-6.9c-4.2,3.8-7.4,8.6-9.4,13.9
		c-3.4,9.8-1.6,21.5,5.5,29c7.6,8,19.6,10.2,30.7,10.1l0.2-0.2c-3.4-5.1-6.1-12.1-2.3-17c3.7-4.8,11-4.1,16.6-6.2
		C249.1,132,253.7,122.7,252.3,114.5z"/>
	<path class="st5" d="M329.7,521.2h-273c-0.6,0-1-0.4-1-1s0.4-1,1-1h273c0.6,0,1,0.4,1,1S330.3,521.2,329.7,521.2z"/>
	<path id="e2582065-92bf-48dc-a28d-04f42179e35f" class="st6" d="M425.6,177.2c-1.3,0-2.3,1.6-2.3,3.6s1,3.6,2.3,3.6h106.9
		c1.3,0,2.3-1.6,2.3-3.6s-1-3.6-2.3-3.6H425.6z"/>
	<path id="bb678cb9-7d76-4fbb-a84c-c380d6521528" class="st6" d="M425.6,198.2c-1.3,0-2.3,1.6-2.3,3.6s1,3.6,2.3,3.6h106.9
		c1.3,0,2.3-1.6,2.3-3.6s-1-3.6-2.3-3.6H425.6z"/>
	<path id="a9697f3a-b5f3-4f74-8277-57e15506e4dd" class="st6" d="M425.6,219c-1.3,0-2.3,1.6-2.3,3.6s1,3.6,2.3,3.6h46
		c1.3,0,2.3-1.6,2.3-3.6s-1-3.6-2.3-3.6H425.6z"/>
	<circle class="st6" cx="371.4" cy="201.4" r="29"/>
</g>
</svg>
