<?xml version="1.0" encoding="utf-8"?>
<!-- Generator: Adobe Illustrator 25.2.0, SVG Export Plug-In . SVG Version: 6.00 Build 0)  -->
<svg version="1.1" id="eea36a73-aee8-429d-873f-f80541e99906"
	 xmlns="http://www.w3.org/2000/svg" xmlns:xlink="http://www.w3.org/1999/xlink" x="0px" y="0px" viewBox="0 0 936.3 604"
	 style="enable-background:new 0 0 936.3 604;" xml:space="preserve">
<style type="text/css">
	.st0{fill:#CCCCCC;}
	.st1{fill:#00174D;}
	.st2{fill:#3F3D56;}
	.st3{fill:#F9A602;}
	.st4{fill:#F2F2F2;}
	.st5{fill:#FFFFFF;}
	.st6{fill:#FFB8B8;}
	.st7{fill:#2F2E41;}
</style>
<path class="st0" d="M441,95h-88c-2.8,0-5-2.2-5-5s2.2-5,5-5h88c2.8,0,5,2.2,5,5S443.8,95,441,95z"/>
<path class="st0" d="M509,130H353c-2.8,0-5-2.2-5-5s2.2-5,5-5h156c2.8,0,5,2.2,5,5S511.8,130,509,130z"/>
<path class="st0" d="M470,165H353c-2.8,0-5-2.2-5-5s2.2-5,5-5h117c2.8,0,5,2.2,5,5S472.8,165,470,165z"/>
<path class="st0" d="M509,200H353c-2.8,0-5-2.2-5-5s2.2-5,5-5h156c2.8,0,5,2.2,5,5S511.8,200,509,200z"/>
<circle class="st1" cx="149.3" cy="140.5" r="89.5"/>
<path class="st2" d="M562,305H17c-9.4,0-17-7.6-17-17V17C0,7.6,7.6,0,17,0h545c9.4,0,17,7.6,17,17v271C579,297.4,571.4,305,562,305z
	 M17,2C8.7,2,2,8.7,2,17v271c0,8.3,6.7,15,15,15h545c8.3,0,15-6.7,15-15V17c0-8.3-6.7-15-15-15H17z"/>
<circle class="st0" cx="330" cy="90" r="5"/>
<circle class="st0" cx="330" cy="125" r="5"/>
<circle class="st0" cx="330" cy="160" r="5"/>
<circle class="st0" cx="330" cy="195" r="5"/>
<path class="st3" d="M438.1,239h-30.5c-2.1,0-3.8-1.7-3.8-3.8v-36c0-2.1,1.7-3.8,3.8-3.8h30.5c2.1,0,3.8,1.7,3.8,3.8v36
	C441.8,237.3,440.1,239,438.1,239z"/>
<path class="st4" d="M756.8,602.5l-3.4,0.8c1.5,0.2,3.1,0.4,4.6,0.6h56.5c4.2-0.5,8.5-1.2,12.6-2c25.3-4.7,49.4-14.2,71-28.1
	c13.3-8.6,25.9-19.2,32.8-33.5c9.3-19.3,6.1-43.8-7.2-60.7c-4.8-6.1-10.8-11.2-17.6-15c-1-0.6-2-1.1-3.1-1.7
	c-11.3-5.7-23.9-8-36.5-6.7c-21.4,2.3-41,15.4-52.4,33.6c-12.6,20.1-15,44.7-17.1,68.4c-3.8-12.3-18.1-19.8-30.7-17
	c-12.5,2.7-22.2,14.4-23.8,27.2c-1.5,12.5,4.1,25.2,13.6,33.6C756.4,602.2,756.6,602.4,756.8,602.5z"/>
<path class="st5" d="M800.4,604h2.8c0.3-0.2,0.5-0.5,0.6-0.8c0.2-0.4,0.3-0.8,0.5-1.2c21.9-53,56.6-99.6,101.1-135.8
	c0.5-0.3,0.7-0.9,0.7-1.5c-0.2-1.2-1.3-2-2.5-1.8c-0.4,0.1-0.7,0.2-1,0.5c-17.6,14.3-33.8,30.4-48.2,47.9
	c-22.6,27.3-41,57.9-54.3,90.8c0,0,0,0,0,0.1C799.6,602.7,799.8,603.5,800.4,604z"/>
<path class="st6" d="M701.3,382c0-6.3,5.1-11.4,11.4-11.4c0.1,0,0.2,0,0.3,0l35.2-28.1L723,317.4c-4.4-4.3-4.4-11.4,0-15.7
	s11.4-4.4,15.7,0l0,0l40.6,40.6l-55.3,40c-0.2,6.3-5.4,11.2-11.7,11.1C706.2,393.3,701.3,388.2,701.3,382z"/>
<polygon class="st6" points="659.9,590 648,585.6 659.5,537.6 677.1,544.1 "/>
<path class="st7" d="M640.3,578.8l23.5,8.8l0,0l-5.4,14.5l0,0l-37.4-14l0,0l0.2-0.5C624,579.9,632.6,576,640.3,578.8z"/>
<polygon class="st6" points="767.1,590.2 754.4,590.2 748.3,541.2 767.1,541.2 "/>
<path class="st7" d="M744.7,586.6h25.1l0,0V602l0,0h-39.9l0,0v-0.5C729.8,593.3,736.5,586.6,744.7,586.6z"/>
<path class="st7" d="M750.2,571.6c-0.9-0.9-1.4-2.2-1.4-3.5c2.3-37.4-17.5-105.5-23.6-125.5c-0.3-1.1-1.2-2-2.4-2.3
	s-2.4-0.1-3.3,0.7c-33,28.7-42.8,109.7-44.4,125.7c-0.3,2.5-2.5,4.3-4.9,4h-0.1l-16.5-2.1c-2.5-0.3-4.2-2.6-3.9-5
	c0-0.1,0-0.3,0.1-0.4L693,363.8v-0.1l0.1-0.1c10.4-12.5,40.7-7.6,41.9-7.4h0.1l0.1,0.1c38.8,32.2,36.8,181.4,36.1,210.9
	c-0.1,2.3-1.8,4.1-4.1,4.4l-13.5,1.3c-0.1,0-0.3,0-0.4,0C752.2,572.9,751.1,572.4,750.2,571.6z"/>
<circle class="st6" cx="727.4" cy="251.3" r="24.6"/>
<path class="st1" d="M751.5,297.5c0,0-22.8-27-41.5-5.2l0,0c-12,14-18.4,32-17.8,50.4l0.7,23.7l43-6.7L751.5,297.5z"/>
<path class="st7" d="M723.4,255.5l-10.6-12.4c-2.7-3.2-5.6-6.7-5.9-10.9c-0.4-4.6,2.4-9,6.2-11.6s8.5-3.6,13.1-3.9
	c8.5-0.7,17.5,0.7,24.5,5.6s11.6,13.7,9.9,22.1c-1.3,6.6-6.3,12.9-4.4,19.4c2.1,7.1,10.7,9.2,17.8,11.3
	c11.8,3.5,23.1,10.5,29.4,21.2s6.2,25.4-2.1,34.6c-5.4,5.9-13.4,8.9-21.4,9.4s-15.9-1.4-23.5-4c-7-2.4-13.9-5.4-19.4-10.3
	s-9.4-11.9-9.3-19.3c0.2-7,3.9-13.4,5.5-20.3c2.5-11.7-1.5-23.8-10.4-31.7"/>
<path class="st1" d="M697.4,477.3h-30.5c-2.1,0-3.8-1.7-3.8-3.8v-36c0-2.1,1.7-3.8,3.8-3.8h30.5c2.1,0,3.8,1.7,3.8,3.8v36
	C701.1,475.7,699.4,477.3,697.4,477.3z"/>
<path class="st6" d="M688.3,446.5c-3-4.7-2.1-10.9,2.2-14.5l16.7-131.7c0.7-5.8,5.7-10.2,11.6-10.2h0.2c6.4,0.1,11.6,5.4,11.5,11.8
	c0,0.6-0.1,1.3-0.2,1.9l-23.5,130.1l0,0c3.6,5,2.6,12-2.4,15.6c-0.6,0.5-1.3,0.8-2,1.2c-1.4,0.6-3,1-4.5,1
	C694,451.7,690.4,449.7,688.3,446.5z"/>
<path class="st2" d="M854.4,604h-257c-0.6,0-1-0.4-1-1s0.4-1,1-1h257c0.6,0,1,0.4,1,1S855,604,854.4,604z"/>
</svg>
