<?xml version="1.0" encoding="utf-8"?>
<!-- Generator: Adobe Illustrator 25.2.0, SVG Export Plug-In . SVG Version: 6.00 Build 0)  -->
<svg version="1.1" id="Layer_1" xmlns="http://www.w3.org/2000/svg" xmlns:xlink="http://www.w3.org/1999/xlink" x="0px" y="0px"
	 viewBox="0 0 512 512" style="enable-background:new 0 0 512 512;" xml:space="preserve">
<style type="text/css">
	.st0{fill:#FFFFFF;}
	.st1{fill:#00174D;}
</style>
<rect id="canvas_background" x="-1" y="-1" class="st0" width="514" height="514"/>
<path class="st1" d="M391.7,0H120.3c-23.2,0-41.9,18.8-42,42v428c0,23.2,18.8,41.9,42,42h271.4c23.2,0,41.9-18.8,42-42V42
	C433.6,18.8,414.9,0,391.7,0z M176.7,453.2h-14.8c-16.8,0-30.4-13.6-30.4-30.4l0,0V89.1c0-16.8,13.6-30.4,30.4-30.4l0,0h14.8
	c16.8,0,30.4,13.6,30.4,30.4l0,0v333.7C207,439.6,193.4,453.2,176.7,453.2L176.7,453.2z"/>
</svg>
